_12Mar_ss_12ms_01.mot
version=1
nRows=66
nColumns=19
inDegrees=yes
endheader

time	ground_force_vx	ground_force_vy	ground_force_vz	ground_force_px	ground_force_py	ground_force_pz	ground_torque_x	ground_torque_y	ground_torque_z	1_ground_force_vx	1_ground_force_vy	1_ground_force_vz	1_ground_force_px	1_ground_force_py	1_ground_force_pz	1_ground_torque_x	1_ground_torque_y	1_ground_torque_z
22.878000	47.507532	706.667709	9.978894	0.380871	0.000000	-0.846098	0.000026	-7.846048	0.000016	-0.000000	0.000000	-0.000000	0.000000	0.000000	0.000000	0.000000	0.000000	-0.000000
22.879000	47.358031	706.750384	9.481456	0.380898	0.000000	-0.845132	0.000026	-7.831954	0.000016	-0.000000	0.000000	-0.000000	0.000000	0.000000	0.000000	0.000000	0.000000	-0.000000
22.880000	47.217053	706.842135	8.988883	0.380924	0.000000	-0.844169	0.000026	-7.818485	0.000016	-0.000000	0.000000	-0.000000	0.000000	0.000000	0.000000	0.000000	0.000000	-0.000000
22.881000	47.084739	706.942585	8.501123	0.380948	0.000000	-0.843209	0.000026	-7.805634	0.000016	-0.000000	0.000000	-0.000000	0.000000	0.000000	0.000000	0.000000	0.000000	-0.000000
22.882000	46.961212	707.051387	8.018110	0.380970	0.000000	-0.842252	0.000026	-7.793397	0.000016	0.000000	0.000000	-0.000000	0.000000	0.000000	0.000000	0.000000	0.000000	-0.000000
22.883000	46.846579	707.168225	7.539769	0.380991	0.000000	-0.841299	0.000026	-7.781765	0.000016	0.000000	0.000000	-0.000000	0.000000	0.000000	0.000000	0.000000	0.000000	0.000000
22.884000	46.740931	707.292818	7.066012	0.381011	0.000000	-0.840348	0.000026	-7.770729	0.000016	0.000000	0.000000	-0.000000	0.000000	0.000000	0.000000	0.000000	-0.000000	0.000000
22.885000	46.644339	707.424916	6.596742	0.381029	0.000000	-0.839401	0.000026	-7.760279	0.000016	0.000000	0.000000	-0.000000	0.000000	0.000000	0.000000	0.000000	-0.000000	0.000000
22.886000	46.556857	707.564304	6.131854	0.381046	0.000000	-0.838456	0.000026	-7.750402	0.000016	0.000000	0.000000	-0.000000	0.000000	0.000000	0.000000	0.000000	-0.000000	0.000000
22.887000	46.478524	707.710798	5.671231	0.381061	0.000000	-0.837515	0.000026	-7.741085	0.000016	0.000000	0.000000	-0.000000	0.000000	0.000000	0.000000	0.000000	-0.000000	0.000000
22.888000	46.409358	707.864252	5.214750	0.381075	0.000000	-0.836576	0.000026	-7.732314	0.000016	0.000000	0.000000	-0.000000	0.000000	0.000000	0.000000	0.000000	-0.000000	0.000000
22.889000	46.349363	708.024553	4.762280	0.381087	0.000000	-0.835640	0.000026	-7.724072	0.000016	0.000000	0.000000	-0.000000	0.000000	0.000000	0.000000	0.000000	-0.000000	0.000000
22.890000	46.298524	708.191620	4.313682	0.381098	0.000000	-0.834706	0.000026	-7.716341	0.000016	0.000000	0.000000	-0.000000	0.000000	0.000000	0.000000	0.000000	-0.000000	0.000000
22.891000	46.256810	708.365409	3.868811	0.381107	0.000000	-0.833775	0.000026	-7.709105	0.000016	0.000000	0.000000	-0.000000	0.000000	0.000000	0.000000	0.000000	-0.000000	0.000000
22.892000	46.224173	708.545909	3.427517	0.381115	0.000000	-0.832847	0.000026	-7.702344	0.000016	0.000000	0.000000	-0.000000	0.000000	0.000000	0.000000	0.000000	-0.000000	0.000000
22.893000	46.200548	708.733142	2.989645	0.381122	0.000000	-0.831921	0.000026	-7.696037	0.000016	0.000000	0.000000	-0.000000	0.000000	0.000000	0.000000	0.000000	-0.000000	0.000000
22.894000	46.185857	708.927162	2.555035	0.381128	0.000000	-0.830997	0.000025	-7.690164	0.000016	0.000000	0.000000	-0.000000	0.000000	0.000000	0.000000	0.000000	-0.000000	0.000000
22.895000	46.180003	709.128058	2.123525	0.381132	0.000000	-0.830075	0.000025	-7.684701	0.000016	0.000000	0.000000	-0.000000	0.000000	0.000000	0.000000	0.000000	-0.000000	0.000000
22.896000	46.182876	709.335948	1.694949	0.381134	0.000000	-0.829156	0.000025	-7.679627	0.000016	0.000000	0.000000	-0.000000	0.000000	0.000000	0.000000	0.000000	-0.000000	0.000000
22.897000	46.194351	709.550980	1.269141	0.381136	0.000000	-0.828238	0.000025	-7.674918	0.000016	0.000000	0.000000	-0.000000	0.000000	0.000000	0.000000	0.000000	-0.000000	0.000000
22.898000	46.214288	709.773335	0.845935	0.381136	0.000000	-0.827322	0.000025	-7.670548	0.000016	0.000000	0.000000	-0.000000	0.000000	0.000000	0.000000	0.000000	-0.000000	0.000000
22.899000	46.242534	710.003218	0.425161	0.381136	0.000000	-0.826408	0.000025	-7.666494	0.000015	0.000000	0.000000	-0.000000	0.000000	0.000000	0.000000	0.000000	-0.000000	0.000000
22.900000	46.278923	710.240865	0.006653	0.381134	0.000000	-0.825496	0.000025	-7.662730	0.000015	0.000000	0.000000	-0.000000	0.000000	0.000000	0.000000	0.000000	-0.000000	0.000000
22.901000	46.323277	710.486535	-0.409754	0.381131	0.000000	-0.824585	0.000025	-7.659229	0.000015	0.000000	0.000000	-0.000000	0.000000	0.000000	0.000000	0.000000	-0.000000	0.000000
22.902000	46.375406	710.740513	-0.824223	0.381127	0.000000	-0.823676	0.000025	-7.655965	0.000015	0.000000	0.000000	-0.000000	0.000000	0.000000	0.000000	0.000000	-0.000000	0.000000
22.903000	46.435109	711.003104	-1.236916	0.381122	0.000000	-0.822767	0.000025	-7.652911	0.000015	0.000000	0.000000	-0.000000	0.000000	0.000000	0.000000	0.000000	-0.000000	0.000000
22.904000	46.502174	711.274637	-1.647988	0.381117	0.000000	-0.821860	0.000025	-7.650040	0.000015	0.000000	0.000000	-0.000000	0.000000	0.000000	0.000000	0.000000	-0.000000	0.000000
22.905000	46.576380	711.555460	-2.057592	0.381110	0.000000	-0.820954	0.000025	-7.647325	0.000015	0.000000	0.000000	-0.000000	0.000000	0.000000	0.000000	0.000000	-0.000000	0.000000
22.906000	46.657498	711.845936	-2.465876	0.381103	0.000000	-0.820049	0.000025	-7.644737	0.000015	0.000000	0.000000	-0.000000	0.000000	0.000000	0.000000	0.000000	-0.000000	0.000000
22.907000	46.745288	712.146445	-2.872982	0.381095	0.000000	-0.819145	0.000025	-7.642250	0.000015	0.000000	0.000000	-0.000000	0.000000	0.000000	0.000000	0.000000	-0.000000	0.000000
22.908000	46.839505	712.457382	-3.279045	0.381086	0.000000	-0.818242	0.000024	-7.639833	0.000015	0.000000	0.000000	-0.000000	0.000000	0.000000	0.000000	0.000000	-0.000000	0.000000
22.909000	46.939896	712.779151	-3.684196	0.381077	0.000000	-0.817339	0.000024	-7.637461	0.000015	0.000000	0.000000	-0.000000	0.000000	0.000000	0.000000	0.000000	-0.000000	0.000000
22.910000	47.046205	713.112167	-4.088557	0.381067	0.000000	-0.816437	0.000024	-7.635105	0.000015	0.000000	0.000000	-0.000000	0.000000	0.000000	0.000000	0.000000	-0.000000	0.000000
22.911000	47.158167	713.456851	-4.492243	0.381056	0.000000	-0.815535	0.000024	-7.632737	0.000015	0.000000	0.000000	-0.000000	0.000000	0.000000	0.000000	0.000000	-0.000000	0.000000
22.912000	47.275514	713.813632	-4.895360	0.381045	0.000000	-0.814634	0.000024	-7.630329	0.000015	0.000000	0.000000	-0.000000	0.000000	0.000000	0.000000	0.000000	-0.000000	0.000000
22.913000	47.397977	714.182938	-5.298008	0.381034	0.000000	-0.813733	0.000024	-7.627854	0.000015	0.000000	0.000000	-0.000000	0.000000	0.000000	0.000000	0.000000	-0.000000	0.000000
22.914000	47.525281	714.565201	-5.700278	0.381022	0.000000	-0.812832	0.000024	-7.625285	0.000015	0.000000	0.000000	-0.000000	0.000000	0.000000	0.000000	0.000000	-0.000000	0.000000
22.915000	47.657149	714.960851	-6.102251	0.381010	0.000000	-0.811932	0.000024	-7.622596	0.000014	0.000000	0.000000	-0.000000	0.000000	0.000000	0.000000	0.000000	-0.000000	0.000000
22.916000	47.793307	715.370313	-6.504000	0.380998	0.000000	-0.811031	0.000024	-7.619761	0.000014	0.000000	0.000000	-0.000000	0.000000	0.000000	0.000000	0.000000	-0.000000	0.000000
22.917000	47.933475	715.794006	-6.905590	0.380986	0.000000	-0.810130	0.000024	-7.616753	0.000014	0.000000	0.000000	-0.000000	0.000000	0.000000	0.000000	0.000000	-0.000000	0.000000
22.918000	48.077377	716.232344	-7.307076	0.380973	0.000000	-0.809230	0.000024	-7.613549	0.000014	0.000000	0.000000	-0.000000	0.000000	0.000000	0.000000	0.000000	-0.000000	0.000000
22.919000	48.224737	716.685726	-7.708505	0.380961	0.000000	-0.808329	0.000024	-7.610124	0.000014	0.000000	0.000000	-0.000000	0.000000	0.000000	0.000000	0.000000	-0.000000	0.000000
22.920000	48.375279	717.154543	-8.109914	0.380948	0.000000	-0.807428	0.000024	-7.606455	0.000014	0.000000	0.000000	-0.000000	0.000000	0.000000	0.000000	0.000000	-0.000000	0.000000
22.921000	48.528733	717.639169	-8.511331	0.380936	0.000000	-0.806527	0.000023	-7.602519	0.000014	0.000000	0.000000	-0.000000	0.000000	0.000000	0.000000	0.000000	-0.000000	0.000000
22.922000	48.684828	718.139961	-8.912779	0.380924	0.000000	-0.805626	0.000023	-7.598295	0.000014	0.000000	0.000000	-0.000000	0.000000	0.000000	0.000000	0.000000	-0.000000	0.000000
22.923000	48.843300	718.657259	-9.314268	0.380911	0.000000	-0.804724	0.000023	-7.593762	0.000014	0.000000	0.000000	-0.000000	0.000000	0.000000	0.000000	0.000000	-0.000000	0.000000
22.924000	49.003887	719.191381	-9.715803	0.380899	0.000000	-0.803822	0.000023	-7.588900	0.000014	0.000000	0.000000	0.000000	0.000000	0.000000	0.000000	0.000000	-0.000000	0.000000
22.925000	49.166333	719.742623	-10.117380	0.380887	0.000000	-0.802920	0.000023	-7.583691	0.000014	0.000000	0.000000	0.000000	0.000000	0.000000	0.000000	0.000000	-0.000000	0.000000
22.926000	49.330389	720.311255	-10.518990	0.380876	0.000000	-0.802018	0.000023	-7.578116	0.000014	0.000000	0.000000	0.000000	0.000000	0.000000	0.000000	0.000000	-0.000000	0.000000
22.927000	49.495809	720.897523	-10.920613	0.380864	0.000000	-0.801115	0.000023	-7.572160	0.000014	0.000000	0.000000	0.000000	0.000000	0.000000	0.000000	0.000000	-0.000000	0.000000
22.928000	49.662358	721.501643	-11.322226	0.380853	0.000000	-0.800212	0.000023	-7.565806	0.000014	0.000000	0.000000	0.000000	0.000000	0.000000	0.000000	0.000000	-0.000000	0.000000
22.929000	49.829804	722.123804	-11.723799	0.380843	0.000000	-0.799309	0.000023	-7.559040	0.000014	0.000000	0.000000	0.000000	0.000000	0.000000	0.000000	0.000000	-0.000000	0.000000
22.930000	49.997926	722.764161	-12.125295	0.380832	0.000000	-0.798405	0.000023	-7.551850	0.000014	0.000000	0.000000	0.000000	0.000000	0.000000	0.000000	0.000000	-0.000000	0.000000
22.931000	50.166511	723.422839	-12.526674	0.380823	0.000000	-0.797501	0.000023	-7.544222	0.000014	0.000000	0.000000	0.000000	0.000000	0.000000	0.000000	0.000000	-0.000000	0.000000
22.932000	50.335354	724.099928	-12.927890	0.380813	0.000000	-0.796596	0.000023	-7.536147	0.000014	0.000000	0.000000	0.000000	0.000000	0.000000	0.000000	0.000000	-0.000000	0.000000
22.933000	50.504260	724.795483	-13.328894	0.380805	0.000000	-0.795692	0.000023	-7.527614	0.000014	0.000000	0.000000	0.000000	0.000000	0.000000	0.000000	0.000000	-0.000000	0.000000
22.934000	50.673044	725.509524	-13.729633	0.380796	0.000000	-0.794787	0.000023	-7.518616	0.000014	0.000000	0.000000	0.000000	0.000000	0.000000	0.000000	0.000000	-0.000000	0.000000
22.935000	50.841531	726.242034	-14.130053	0.380788	0.000000	-0.793882	0.000023	-7.509146	0.000014	0.000000	0.000000	0.000000	0.000000	0.000000	0.000000	0.000000	-0.000000	0.000000
22.936000	51.009555	726.992957	-14.530095	0.380781	0.000000	-0.792977	0.000023	-7.499197	0.000014	0.000000	0.000000	0.000000	0.000000	0.000000	0.000000	0.000000	-0.000000	0.000000
22.937000	51.176964	727.762200	-14.929700	0.380774	0.000000	-0.792072	0.000023	-7.488766	0.000014	0.000000	0.000000	0.000000	0.000000	0.000000	0.000000	0.000000	0.000000	0.000000
22.938000	51.343615	728.549631	-15.328809	0.380768	0.000000	-0.791167	0.000023	-7.477849	0.000014	0.000000	0.000000	0.000000	0.000000	0.000000	0.000000	0.000000	0.000000	0.000000
22.939000	51.509377	729.355079	-15.727361	0.380762	0.000000	-0.790262	0.000023	-7.466444	0.000014	0.000000	0.000000	0.000000	0.000000	0.000000	0.000000	0.000000	0.000000	0.000000
22.940000	51.674131	730.178332	-16.125295	0.380757	0.000000	-0.789358	0.000022	-7.454551	0.000014	0.000000	0.000000	0.000000	0.000000	0.000000	0.000000	0.000000	0.000000	0.000000
22.941000	51.837769	731.019140	-16.522553	0.380753	0.000000	-0.788453	0.000022	-7.442169	0.000014	0.000000	0.000000	0.000000	0.000000	0.000000	0.000000	0.000000	0.000000	0.000000
22.942000	52.000198	731.877213	-16.919077	0.380749	0.000000	-0.787549	0.000022	-7.429300	0.000014	-0.000000	0.000000	0.000000	0.000000	0.000000	0.000000	0.000000	0.000000	0.000000
22.943000	52.161332	732.752221	-17.314810	0.380745	0.000000	-0.786645	0.000022	-7.415948	0.000014	-0.000000	0.000000	0.000000	0.000000	0.000000	0.000000	0.000000	0.000000	0.000000
